<?xml version="1.0" encoding="utf-8"?>
<!-- Generator: Adobe Illustrator 24.2.3, SVG Export Plug-In . SVG Version: 6.00 Build 0)  -->
<svg version="1.1" xmlns="http://www.w3.org/2000/svg" xmlns:xlink="http://www.w3.org/1999/xlink" x="0px" y="0px"
	 viewBox="0 0 432 432" style="enable-background:new 0 0 432 432;" xml:space="preserve">
<style type="text/css">
	.st0{display:none;}
	.st1{display:inline;fill:#231F20;}
	.st2{fill:#FFFFFF;}
	.st3{fill:#0F4C81;}
</style>
<g id="COnstruct" class="st0">
	<rect x="203.2" y="71.2" class="st1" width="23.7" height="297.1"/>
	
		<rect x="294.3" y="164.9" transform="matrix(-1.836970e-16 1 -1 -1.836970e-16 525.9344 -86.4255)" class="st1" width="23.7" height="109.7"/>
	
		<rect x="109.5" y="162.3" transform="matrix(-1.836970e-16 1 -1 -1.836970e-16 341.1122 98.3968)" class="st1" width="23.7" height="114.9"/>
	<polygon class="st1" points="361.8,207.9 203.2,366.5 203.2,400.1 395.4,207.9 	"/>
	<polygon class="st1" points="40.6,231.6 74.2,231.6 226.9,78.9 226.9,45.3 	"/>
</g>
<g id="BW">
	<polygon class="st2" points="203.2,400.1 395.4,207.9 251.3,207.9 251.3,231.6 338.1,231.6 226.9,342.8 226.9,45.3 40.6,231.6 
		178.8,231.6 178.8,207.9 98,207.9 203.2,102.7 	"/>
</g>
<g id="reverse">
	<polygon points="675.5,348.3 811.5,212.2 709.6,212.2 709.6,229 771,229 692.3,307.7 692.3,97.2 560.5,229 658.2,229 658.2,212.2 
		601,212.2 675.5,137.8 	"/>
</g>
<g id="Layer_4">
	<rect x="931" y="-9" class="st3" width="450" height="450"/>
	<polygon class="st2" points="1147.1,328.6 1261.9,213.9 1175.9,213.9 1175.9,228 1227.7,228 1161.3,294.4 1161.3,116.8 1050.1,228 
		1132.6,228 1132.6,213.9 1084.3,213.9 1147.1,151 	"/>
</g>
<g id="Layer_5">
	<polygon class="st3" points="1611.2,400.1 1803.4,207.9 1659.3,207.9 1659.3,231.6 1746.1,231.6 1634.9,342.8 1634.9,45.3 
		1448.6,231.6 1586.8,231.6 1586.8,207.9 1505.9,207.9 1611.2,102.7 	"/>
</g>
</svg>
